<?xml version="1.0" encoding="UTF-8"?>
<svg version="1.1" xmlns="http://www.w3.org/2000/svg" width="1920" height="335">
<path d="M0 0 C633.6 0 1267.2 0 1920 0 C1920 55.44 1920 110.88 1920 168 C1913.4 170.64 1906.8 173.28 1900 176 C1884.07258255 184.02450039 1869.56643913 194.17503257 1854.79225159 204.11338806 C1837.43782748 215.77912495 1819.62616466 227.73615267 1799.6875 234.5 C1798.72251587 234.82846924 1798.72251587 234.82846924 1797.73803711 235.16357422 C1784.7265688 239.23016036 1771.62210218 240.60097504 1758.0625 240.5625 C1757.25929321 240.56467529 1756.45608643 240.56685059 1755.62854004 240.5690918 C1738.13316475 240.56402679 1720.89597787 238.56104561 1703.53494263 236.57501221 C1688.67554591 234.88500789 1673.96674382 233.39147208 1659 233.4375 C1657.69321289 233.43556641 1656.38642578 233.43363281 1655.04003906 233.43164062 C1642.1558782 233.6544215 1629.20198055 235.73151916 1617 239.9375 C1616.13157471 240.23414551 1615.26314941 240.53079102 1614.3684082 240.83642578 C1596.41576267 247.22206328 1579.70242776 256.63302251 1562.94433594 265.59994507 C1525.10410906 285.83439345 1525.10410906 285.83439345 1505 291 C1503.77667969 291.33644531 1502.55335937 291.67289062 1501.29296875 292.01953125 C1468.83909805 299.58864486 1434.14774574 290.64462923 1402.25219727 284.17407227 C1387.20546295 281.13305159 1372.36237418 278.771884 1357 278 C1356.175 277.95746094 1355.35 277.91492188 1354.5 277.87109375 C1324.79010596 277.11830927 1297.51687514 289.30357575 1270.90234375 300.98828125 C1236.10449488 316.25431894 1236.10449488 316.25431894 1219 321 C1218.17967285 321.23138672 1217.3593457 321.46277344 1216.51416016 321.70117188 C1179.3832343 331.74985448 1142.83318263 320.15513401 1107.07861328 310.38427734 C1077.08027982 302.19420103 1046.92954284 295.36900047 1016 303 C1015.22140625 303.18320801 1014.4428125 303.36641602 1013.640625 303.55517578 C995.4127658 307.93877779 977.8027284 314.4641434 960.17773438 320.78173828 C908.95858262 339.01809315 868.99333518 336.39385556 818.37384033 318.82263184 C811.3013945 316.37174286 804.21778691 313.95385646 797.125 311.5625 C796.37057617 311.30801086 795.61615234 311.05352173 794.83886719 310.7913208 C782.73038148 306.7264508 770.5964138 303.23196667 758 301 C756.8965625 300.80277344 755.793125 300.60554688 754.65625 300.40234375 C723.6215116 296.98719625 694.13371025 305.39210865 664.55859375 313.60546875 C631.70965978 322.72334611 598.808705 330.59684428 565 321 C564.11022461 320.74750488 563.22044922 320.49500977 562.30371094 320.23486328 C545.87107921 315.41466269 530.32721257 308.57344322 514.70996094 301.64160156 C466.26473272 280.16562071 429.27164961 274.9704889 377 285 C376.25639221 285.14260254 375.51278442 285.28520508 374.74664307 285.43212891 C373.1623806 285.73600178 371.57813723 286.03997429 369.99391174 286.34403992 C367.53854836 286.81484561 365.08288869 287.28408252 362.62719727 287.75317383 C359.463438 288.35759949 356.30142026 288.97014501 353.14038086 289.58862305 C298.82414785 300.12079225 258.78781977 286.85840006 211.6875 260.8125 C194.16451288 251.13307363 176.48685877 241.94697521 157 237 C155.76121094 236.66355469 154.52242187 236.32710937 153.24609375 235.98046875 C123.13289346 229.21658069 90.07596573 235.28119297 59.98994446 238.9720459 C49.07549933 240.29291961 38.18505981 241.17933552 27.1875 241.1875 C26.33091797 241.19974609 25.47433594 241.21199219 24.59179688 241.22460938 C16.14000709 241.24313046 8.5989033 240.07486291 0 239 C0 160.13 0 81.26 0 0 Z " fill="#a4a4a4" transform="translate(0,0)"/>
</svg>
